<svg width="149" height="93" viewBox="0 0 149 93" fill="none" xmlns="http://www.w3.org/2000/svg">
<g opacity="0.8">
<path opacity="0.8" d="M96 21C93.8667 21 92 22.7333 92 25C92 27.1333 93.7333 29 96 29C98.1333 29 100 27.2667 100 25C99.8667 22.7333 98.1333 21 96 21Z" fill="#5850D5"/>
<path opacity="0.8" d="M96 0C93.8667 0 92 1.73333 92 4C92 6.13333 93.7333 8 96 8C98.1333 8 100 6.26667 100 4C99.8667 1.73333 98.1333 0 96 0Z" fill="#5850D5"/>
<path opacity="0.8" d="M119 21C116.867 21 115 22.7333 115 25C115 27.1333 116.733 29 119 29C121.133 29 123 27.2667 123 25C122.867 22.7333 121.133 21 119 21Z" fill="#5850D5"/>
<path opacity="0.8" d="M119 0C116.867 0 115 1.73333 115 4C115 6.13333 116.733 8 119 8C121.133 8 123 6.26667 123 4C122.867 1.73333 121.133 0 119 0Z" fill="#5850D5"/>
<path opacity="0.8" d="M142 21C139.867 21 138 22.7333 138 25C138 27.1333 139.733 29 142 29C144.133 29 146 27.2667 146 25C146 22.7333 144.133 21 142 21Z" fill="#5850D5"/>
<path opacity="0.8" d="M142 0C139.867 0 138 1.73333 138 4C138 6.13333 139.733 8 142 8C144.133 8 146 6.26667 146 4C146 1.73333 144.133 0 142 0Z" fill="#5850D5"/>
<path opacity="0.8" d="M96 83C93.8667 83 92 84.7333 92 87C92 89.1333 93.7333 91 96 91C98.1333 91 100 89.2667 100 87C99.8667 84.7333 98.1333 83 96 83Z" fill="#5850D5"/>
<path opacity="0.8" d="M96 62C93.8667 62 92 63.7333 92 66C92 68.1333 93.7333 70 96 70C98.1333 70 100 68.2667 100 66C99.8667 63.8667 98.1333 62 96 62Z" fill="#5850D5"/>
<path opacity="0.8" d="M96 42C93.8667 42 92 43.7333 92 46C92 48.1333 93.7333 50 96 50C98.1333 50 100 48.2667 100 46C99.8667 43.7333 98.1333 42 96 42Z" fill="#5850D5"/>
<path opacity="0.8" d="M119 83C116.867 83 115 84.7333 115 87C115 89.1333 116.733 91 119 91C121.133 91 123 89.2667 123 87C122.867 84.7333 121.133 83 119 83Z" fill="#5850D5"/>
<path opacity="0.8" d="M119 62C116.867 62 115 63.7333 115 66C115 68.1333 116.733 70 119 70C121.133 70 123 68.2667 123 66C122.867 63.8667 121.133 62 119 62Z" fill="#5850D5"/>
<path opacity="0.8" d="M119 42C116.867 42 115 43.7333 115 46C115 48.1333 116.733 50 119 50C121.133 50 123 48.2667 123 46C122.867 43.7333 121.133 42 119 42Z" fill="#5850D5"/>
<path opacity="0.8" d="M142 83C139.867 83 138 84.7333 138 87C138 89.1333 139.733 91 142 91C144.133 91 146 89.2667 146 87C146 84.7333 144.133 83 142 83Z" fill="#5850D5"/>
<path opacity="0.8" d="M142 62C139.867 62 138 63.7333 138 66C138 68.1333 139.733 70 142 70C144.133 70 146 68.2667 146 66C146 63.8667 144.133 62 142 62Z" fill="#5850D5"/>
<path opacity="0.8" d="M142 42C139.867 42 138 43.7333 138 46C138 48.1333 139.733 50 142 50C144.133 50 146 48.2667 146 46C146 43.7333 144.133 42 142 42Z" fill="#5850D5"/>
<path opacity="0.8" d="M4 21C1.86667 21 0 22.7333 0 25C0 27.1333 1.73333 29 4 29C6.13333 29 8 27.2667 8 25C8 22.7333 6.26667 21 4 21Z" fill="#5850D5"/>
<path opacity="0.8" d="M4 0C1.86667 0 0 1.73333 0 4C0 6.13333 1.73333 8 4 8C6.13333 8 8 6.26667 8 4C8 1.73333 6.26667 0 4 0Z" fill="#5850D5"/>
<path opacity="0.8" d="M27 21C24.8667 21 23 22.7333 23 25C23 27.1333 24.7333 29 27 29C29.1333 29 31 27.2667 31 25C31 22.7333 29.2667 21 27 21Z" fill="#5850D5"/>
<path opacity="0.8" d="M27 0C24.8667 0 23 1.73333 23 4C23 6.13333 24.7333 8 27 8C29.1333 8 31 6.26667 31 4C31 1.73333 29.2667 0 27 0Z" fill="#5850D5"/>
<path opacity="0.8" d="M50 21C47.8667 21 46 22.7333 46 25C46 27.1333 47.7333 29 50 29C52.1333 29 54 27.2667 54 25C54 22.7333 52.2667 21 50 21Z" fill="#5850D5"/>
<path opacity="0.8" d="M50 0C47.8667 0 46 1.73333 46 4C46 6.13333 47.7333 8 50 8C52.1333 8 54 6.26667 54 4C54 1.73333 52.2667 0 50 0Z" fill="#5850D5"/>
<path opacity="0.8" d="M76.3333 22.7931C76.0667 22.3793 75.6667 21.9655 75.2667 21.6897C74.6 21.2759 73.9333 21 73 21C72.4667 21 71.9333 21.1379 71.4 21.2759C70.8667 21.5517 70.4667 21.8276 70.2 22.1034C69.5333 22.7931 69 23.8966 69 25C69 26.1034 69.4 27.2069 70.2 27.8966C70.6 28.3103 71 28.5862 71.4 28.7241C71.9333 29 72.3333 29 73 29C73.8 29 74.6 28.7241 75.2667 28.3103C75.6667 28.0345 76.0667 27.6207 76.3333 27.2069C76.6 26.7931 76.8667 26.2414 76.8667 25.6897C76.8667 25.4138 77 25.1379 77 24.8621C77 24.5862 77 24.3103 76.8667 24.0345C76.8667 23.6207 76.6 23.2069 76.3333 22.7931Z" fill="#5850D5"/>
<path opacity="0.8" d="M76.3333 1.79309C76.0667 1.3793 75.6667 0.965519 75.2667 0.689656C74.6 0.275863 73.9333 0 73 0C72.4667 0 71.9333 0.137948 71.4 0.275879C70.8667 0.551742 70.4667 0.827571 70.2 1.10343C69.5333 1.79309 69 2.89658 69 4.00003C69 5.10348 69.4 6.20691 70.2 6.89656C70.6 7.31036 71 7.58627 71.4 7.72421C71.9333 8.00007 72.3333 8 73 8C73.8 8 74.6 7.72414 75.2667 7.31034C75.6667 7.03448 76.0667 6.6207 76.3333 6.20691C76.6 5.79311 76.8667 5.24142 76.8667 4.68969C76.8667 4.41383 77 4.13792 77 3.86206C77 3.5862 77 3.31036 76.8667 3.0345C76.8667 2.75864 76.6 2.20689 76.3333 1.79309Z" fill="#5850D5"/>
<path opacity="0.8" d="M4 83C1.86667 83 0 84.7333 0 87C0 89.1333 1.73333 91 4 91C6.13333 91 8 89.2667 8 87C8 84.7333 6.26667 83 4 83Z" fill="#5850D5"/>
<path opacity="0.8" d="M4 62C1.86667 62 0 63.7333 0 66C0 68.1333 1.73333 70 4 70C6.13333 70 8 68.2667 8 66C8 63.8667 6.26667 62 4 62Z" fill="#5850D5"/>
<path opacity="0.8" d="M4 42C1.86667 42 0 43.7333 0 46C0 48.1333 1.73333 50 4 50C6.13333 50 8 48.2667 8 46C8 43.7333 6.26667 42 4 42Z" fill="#5850D5"/>
<path opacity="0.8" d="M27 83C24.8667 83 23 84.7333 23 87C23 89.1333 24.7333 91 27 91C29.1333 91 31 89.2667 31 87C31 84.7333 29.2667 83 27 83Z" fill="#5850D5"/>
<path opacity="0.8" d="M27 62C24.8667 62 23 63.7333 23 66C23 68.1333 24.7333 70 27 70C29.1333 70 31 68.2667 31 66C31 63.8667 29.2667 62 27 62Z" fill="#5850D5"/>
<path opacity="0.8" d="M27 42C24.8667 42 23 43.7333 23 46C23 48.1333 24.7333 50 27 50C29.1333 50 31 48.2667 31 46C31 43.7333 29.2667 42 27 42Z" fill="#5850D5"/>
<path opacity="0.8" d="M50 83C47.8667 83 46 84.7333 46 87C46 89.1333 47.7333 91 50 91C52.1333 91 54 89.2667 54 87C54 84.7333 52.2667 83 50 83Z" fill="#5850D5"/>
<path opacity="0.8" d="M50 62C47.8667 62 46 63.7333 46 66C46 68.1333 47.7333 70 50 70C52.1333 70 54 68.2667 54 66C54 63.8667 52.2667 62 50 62Z" fill="#5850D5"/>
<path opacity="0.8" d="M50 42C47.8667 42 46 43.7333 46 46C46 48.1333 47.7333 50 50 50C52.1333 50 54 48.2667 54 46C54 43.7333 52.2667 42 50 42Z" fill="#5850D5"/>
<path opacity="0.8" d="M76.3333 84.7931C76.0667 84.3793 75.6667 83.9655 75.2667 83.6897C74.6 83.2759 73.9333 83 73 83C72.4667 83 71.9333 83.1379 71.4 83.2759C70.8667 83.5517 70.4667 83.8276 70.2 84.1035C69.5333 84.7931 69 85.8966 69 87C69 88.1034 69.4 89.2069 70.2 89.8965C70.6 90.3103 71 90.5862 71.4 90.7241C71.9333 90.8621 72.3333 91 73 91C73.8 91 74.6 90.7241 75.2667 90.3103C75.6667 90.0345 76.0667 89.6207 76.3333 89.2069C76.6 88.7931 76.8667 88.2414 76.8667 87.6897C76.8667 87.4138 77 87.1379 77 86.8621C77 86.5862 77 86.3103 76.8667 86.0345C76.8667 85.6207 76.6 85.2069 76.3333 84.7931Z" fill="#5850D5"/>
<path opacity="0.8" d="M76.3333 63.7931C76.0667 63.3793 75.6667 62.9655 75.2667 62.6897C74.6 62.2759 73.9333 62 73 62C72.4667 62 71.9333 62.1379 71.4 62.2759C70.8667 62.5517 70.4667 62.8276 70.2 63.1035C69.5333 63.7931 69 64.8966 69 66C69 67.1034 69.4 68.2069 70.2 68.8965C70.6 69.3103 71 69.5862 71.4 69.7241C71.9333 69.8621 72.3333 70 73 70C73.8 70 74.6 69.7241 75.2667 69.3103C75.6667 69.0345 76.0667 68.6207 76.3333 68.2069C76.6 67.7931 76.8667 67.2414 76.8667 66.6897C76.8667 66.4138 77 66.1379 77 65.8621C77 65.5862 77 65.3103 76.8667 65.0345C76.8667 64.7586 76.6 64.2069 76.3333 63.7931Z" fill="#5850D5"/>
<path opacity="0.8" d="M76.3333 43.7931C76.0667 43.3793 75.6667 42.9655 75.2667 42.6897C74.6 42.2759 73.9333 42 73 42C72.4667 42 71.9333 42.1379 71.4 42.2759C70.8667 42.4138 70.4667 42.8276 70.2 43.1034C69.5333 43.7931 69 44.8966 69 46C69 47.1035 69.4 48.2069 70.2 48.8966C70.6 49.3103 71 49.5862 71.4 49.7241C71.9333 50 72.3333 50 73 50C73.8 50 74.6 49.7241 75.2667 49.3103C75.6667 49.0345 76.0667 48.6207 76.3333 48.2069C76.6 47.7931 76.8667 47.2414 76.8667 46.6897C76.8667 46.4138 77 46.1379 77 45.8621C77 45.5862 77 45.3103 76.8667 45.0345C76.8667 44.7586 76.6 44.2069 76.3333 43.7931Z" fill="#5850D5"/>
</g>
</svg>
