<svg width="120" height="120" viewBox="0 0 120 120" fill="none" xmlns="http://www.w3.org/2000/svg">
<rect width="120" height="120" rx="60" fill="#55527C"/>
<path d="M60.7812 68.8438C60.4271 73.7396 58.6146 77.5938 55.3438 80.4062C52.0938 83.2188 47.8021 84.625 42.4688 84.625C36.6354 84.625 32.0417 82.6667 28.6875 78.75C25.3542 74.8125 23.6875 69.4167 23.6875 62.5625V59.7812C23.6875 55.4062 24.4583 51.5521 26 48.2188C27.5417 44.8854 29.7396 42.3333 32.5938 40.5625C35.4688 38.7708 38.8021 37.875 42.5938 37.875C47.8438 37.875 52.0729 39.2812 55.2812 42.0938C58.4896 44.9062 60.3438 48.8542 60.8438 53.9375H51.4688C51.2396 51 50.4167 48.875 49 47.5625C47.6042 46.2292 45.4688 45.5625 42.5938 45.5625C39.4688 45.5625 37.125 46.6875 35.5625 48.9375C34.0208 51.1667 33.2292 54.6354 33.1875 59.3438V62.7812C33.1875 67.6979 33.9271 71.2917 35.4062 73.5625C36.9062 75.8333 39.2604 76.9688 42.4688 76.9688C45.3646 76.9688 47.5208 76.3125 48.9375 75C50.375 73.6667 51.1979 71.6146 51.4062 68.8438H60.7812ZM94.3125 64.2812H76.3125V76.4688H97.4375V84H66.9375V38.5H97.375V46.0938H76.3125V56.9375H94.3125V64.2812Z" fill="white"/>
</svg>
